<?xml version="1.0" encoding="UTF-8" standalone="no"?>
<svg
   xmlns:dc="http://purl.org/dc/elements/1.1/"
   xmlns:cc="http://creativecommons.org/ns#"
   xmlns:rdf="http://www.w3.org/1999/02/22-rdf-syntax-ns#"
   xmlns:svg="http://www.w3.org/2000/svg"
   xmlns="http://www.w3.org/2000/svg"
   xmlns:sodipodi="http://sodipodi.sourceforge.net/DTD/sodipodi-0.dtd"
   xmlns:inkscape="http://www.inkscape.org/namespaces/inkscape"
   inkscape:version="1.0 (4035a4fb49, 2020-05-01)"
   sodipodi:docname="geokom.svg"
   viewBox="0 0 302.75153 302.75613"
   id="svg60"
   height="302.75613"
   width="302.75153"
   version="1.1">
  <metadata
     id="metadata66">
    <rdf:RDF>
      <cc:Work
         rdf:about="">
        <dc:format>image/svg+xml</dc:format>
        <dc:type
           rdf:resource="http://purl.org/dc/dcmitype/StillImage" />
        <dc:title></dc:title>
      </cc:Work>
    </rdf:RDF>
  </metadata>
  <defs
     id="defs64" />
  <sodipodi:namedview
     inkscape:current-layer="svg60"
     inkscape:window-maximized="1"
     inkscape:window-y="0"
     inkscape:window-x="0"
     inkscape:cy="229.5012"
     inkscape:cx="139.12439"
     inkscape:zoom="1.6470588"
     showgrid="false"
     id="namedview62"
     inkscape:window-height="1699"
     inkscape:window-width="3200"
     inkscape:pageshadow="2"
     inkscape:pageopacity="0"
     guidetolerance="10"
     gridtolerance="10"
     objecttolerance="10"
     borderopacity="1"
     bordercolor="#666666"
     pagecolor="#ffffff" />
  <path
     inkscape:export-ydpi="31.709999"
     inkscape:export-xdpi="31.709999"
     inkscape:export-filename="/home/jaka/Documents/WebDev/jakanggara/geokom/public/favicon.ico.png"
     id="path4"
     style="fill:#d4aa00;fill-rule:evenodd;stroke:#1b1918;stroke-width:0.5;stroke-linecap:butt;stroke-linejoin:miter;stroke-dasharray:none"
     d="M 151.3751,0.25 A 151.1251,151.1274 0 0 0 0.25,151.3773 151.1251,151.1274 0 1 0 151.3751,0.25 Z" />
  <path
     inkscape:export-ydpi="31.709999"
     inkscape:export-xdpi="31.709999"
     inkscape:export-filename="/home/jaka/Documents/WebDev/jakanggara/geokom/public/favicon.ico.png"
     id="path6"
     style="fill:#1b1918;fill-rule:evenodd;stroke:#d4aa00;stroke-width:0.216;stroke-linecap:butt;stroke-linejoin:miter;stroke-dasharray:none"
     d="m 6.2606,146.5726 c 0,16.031 0.3545,24.5141 4.2995,40.2887 2.3336,9.3462 5.4797,17.8965 9.2179,25.9652 3.9367,8.4914 7.8383,14.6419 12.8571,22.0636 4.1475,6.135 7.5788,9.3947 11.7294,14.5954 2.9879,3.7465 13.6415,13.2901 18.2272,16.6914 7.8889,5.8528 12.8333,9.1952 21.3847,13.8006 13.8698,7.4693 31.0108,12.8115 46.4599,15.0501 23.1654,3.359 47.6516,1.0356 69.521,-6.8698 6.3561,-2.2965 12.2958,-4.9371 18.3254,-7.9984 1.0934,-0.556 1.6288,-0.955 2.775,-1.5234 5.9396,-2.9393 15.3561,-9.5591 21.0714,-14.1117 3.9946,-3.1833 12.9739,-11.2644 16.0021,-14.8889 l 4.1082,-4.7532 c 8.7374,-11.3088 13.7128,-17.2009 20.5961,-32.0557 7.5798,-16.3565 13.5174,-38.2351 13.5174,-56.8561 0,-15.8521 -0.1095,-17.4045 -2.6479,-32.805 -0.6552,-3.9667 -2.3367,-10.1823 -3.4933,-13.9649 l -2.222,-6.6456 c -0.7307,-2.2107 -1.5741,-4.1868 -2.4567,-6.4068 -4.6571,-11.7201 -12.9811,-25.7347 -21.0818,-35.5924 -4.3749,-5.3237 -9.8536,-11.3274 -14.9003,-15.9906 -0.5447,-0.5085 -0.6594,-0.4972 -1.1979,-0.9488 -0.4578,-0.3814 -0.6573,-0.6542 -1.0821,-1.0656 -0.5477,-0.5322 -0.6573,-0.5426 -1.1854,-0.9684 -0.5251,-0.4237 -0.7669,-0.6956 -1.3043,-1.11 l -4.748,-3.8437 c -1.6878,-1.3683 -3.2701,-2.5331 -5.0819,-3.7847 -15.1039,-10.4262 -29.63,-17.5482 -48.188,-22.1877 -15.54,-3.8829 -24.2092,-4.2963 -40.0221,-4.2963 -11.6747,0 -26.3724,2.7874 -37.4332,6.0823 -6.9039,2.0556 -12.8208,4.4968 -19.239,7.3524 -3.6969,1.6423 -7.9799,3.9285 -11.4349,6.0224 l -5.3351,3.2597 c -3.0179,1.8397 -9.9693,6.7396 -12.6999,9.0588 -6.4089,5.4518 -11.375,9.7885 -16.9374,16.1002 -11.2147,12.7258 -19.9511,25.436 -26.4292,41.53 -0.8196,2.0371 -1.7363,4.1196 -2.4784,6.382 l -1.6526,4.7945 C 9.3426,118.128 6.2606,134.8669 6.2606,146.5726 Z m 82.9981,11.8163 h 55.0671 v 53.4547 h -44.056 c -0.2563,-1.112 -0.679,-1.9688 -1.0758,-2.9548 -3.9595,-9.8991 -7.2843,-24.974 -8.7499,-35.5656 -0.6418,-4.6456 -1.1854,-9.93 -1.1854,-14.9343 z m 17.4593,67.4207 h 37.6078 v 46.4671 c -0.8929,-0.2346 -2.1755,-1.5389 -2.96,-2.1466 -0.6387,-0.493 -0.803,-0.7173 -1.4045,-1.2774 -4.6313,-4.3356 -6.1278,-5.2472 -10.6153,-10.3404 l -3.7135,-4.0762 c -0.8589,-1.1018 -1.5544,-1.8728 -2.4453,-2.9249 -2.097,-2.4629 -7.2347,-9.7843 -8.7901,-12.1625 z m -54.7953,0 h 39.217 c 1.1193,2.1146 1.9213,4.4472 3.1709,6.4967 1.2433,2.0454 2.2613,4.316 3.4571,6.4812 3.9915,7.2233 10.7807,16.9767 16.0186,23.2005 l 6.9659,7.8052 c 0.8361,0.832 2.0298,1.5523 2.3523,2.7533 -0.278,-0.1333 -14.0755,-3.7992 -21.8476,-7.4331 -6.6611,-3.113 -13.0948,-6.2818 -19.0913,-10.453 -5.7577,-4.0091 -11.5052,-8.324 -16.34,-13.2074 -1.7167,-1.7312 -1.7084,-1.2247 -3.4261,-3.2897 l -0.2429,-0.2915 c -1.2071,-1.4304 -2.435,-2.344 -3.6328,-3.8912 -0.6088,-0.7896 -1.0366,-1.049 -1.6516,-1.8386 -0.6501,-0.833 -1.0614,-1.2743 -1.6898,-2.0691 -0.9178,-1.1576 -2.6386,-3.0954 -3.2597,-4.2633 z M 27.2122,158.3889 h 48.0784 c 0,13.3934 3.4262,31.8355 7.1561,44.4176 0.4992,1.695 2.7575,7.8486 2.7833,9.0371 h -41.9 c -1.0749,0 -2.5415,-3.7393 -3.3145,-5.2844 -5.3744,-10.7496 -8.5452,-20.4999 -10.9533,-32.5662 -0.5612,-2.8371 -1.85,-12.4199 -1.85,-15.6041 z m 73.0576,-67.4208 h 44.056 v 53.4517 H 89.2587 c 0,-5.087 0.5498,-10.2247 1.1503,-14.9654 0.5581,-4.4163 1.4573,-9.3575 2.4484,-13.6683 2.064,-8.9596 3.2411,-13.2002 6.3717,-21.8301 0.3524,-0.9715 0.7917,-1.9141 1.0407,-2.9879 z m 44.056,-60.4352 V 77.0021 H 106.718 l 0.7906,-1.6278 c 7.8941,-14.0838 8.0874,-14.1375 17.8955,-26.6886 0.5767,-0.7348 0.6377,-0.7886 1.2588,-1.4304 0.616,-0.6273 0.6635,-0.8547 1.2103,-1.4769 3.2545,-3.6948 6.9111,-7.0548 10.4716,-10.4809 0.6222,-0.6057 0.8651,-0.6656 1.4759,-1.2072 0.6263,-0.5633 0.7111,-0.6893 1.4325,-1.2547 0.8795,-0.6852 2.1094,-2.0433 3.0726,-2.3027 z M 75.2906,143.0783 v 1.3415 H 27.2122 c 0,-3.1068 1.2908,-12.6751 1.8055,-15.3819 2.2459,-11.7202 6.3107,-24.5896 12.146,-35.1274 0.5912,-1.0655 0.9612,-1.9461 1.6257,-2.9424 H 85.4987 L 83.502,96.761 c -3.5667,12.1893 -5.3175,18.7243 -7.0549,31.8945 -0.5973,4.5175 -1.1565,9.5673 -1.1565,14.4228 z M 91.1397,77.0021 h -39.217 c 0.5229,-0.9839 0.7513,-1.1348 1.4614,-2.0319 l 4.9867,-6.0254 c 2.158,-2.8184 6.5309,-6.66 9.0599,-9.2056 2.0412,-2.0515 7.5561,-6.3499 10.206,-8.3271 1.4883,-1.111 2.8712,-2.1569 4.3698,-3.1522 l 13.9339,-8.0904 c 7.0445,-3.2194 10.5616,-5.0829 18.3967,-7.3907 l 5.8115,-1.7115 c 0.8651,-0.2295 2.2417,-0.461 2.9559,-0.8021 -0.278,1.0346 -5.1097,5.3578 -6.8709,7.6347 l -10.8054,13.906 c -2.6872,3.9522 -5.1677,7.8982 -7.5582,12.0509 -2.9569,5.1324 -4.316,8.5803 -6.7303,13.1453 z" />
  <path
     inkscape:export-ydpi="31.709999"
     inkscape:export-xdpi="31.709999"
     inkscape:export-filename="/home/jaka/Documents/WebDev/jakanggara/geokom/public/favicon.ico.png"
     id="path8"
     style="fill:#d4aa00;fill-rule:evenodd"
     d="m 168.7319,83.9018 c -1.3042,-0.019 -2.4977,0.4915 -3.3652,1.334 -0.8699,0.8437 -1.4185,2.0182 -1.4375,3.3176 -0.019,1.3042 0.4915,2.4977 1.3339,3.3652 0.8425,0.8687 2.0182,1.4185 3.3177,1.4375 1.303,0.019 2.4977,-0.4927 3.3652,-1.334 0.8698,-0.8436 1.4184,-2.0181 1.4374,-3.3176 0.0191,-1.3042 -0.4926,-2.4977 -1.3339,-3.3652 -0.8437,-0.8698 -2.0182,-1.4184 -3.3176,-1.4375 z m -5.5548,-0.9174 c 1.4447,-1.4018 3.4248,-2.2514 5.5929,-2.2193 2.1752,0.0321 4.1315,0.9425 5.5309,2.3847 1.4006,1.4434 2.2514,3.4259 2.2193,5.5928 -0.0321,2.1753 -0.9425,4.1316 -2.3847,5.531 -1.4434,1.4005 -3.4259,2.2514 -5.5928,2.2192 -2.1753,-0.0321 -4.1316,-0.9424 -5.531,-2.3847 -1.4017,-1.4446 -2.2514,-3.4247 -2.2192,-5.5928 0.0321,-2.1752 0.9424,-4.1315 2.3846,-5.5309 z" />
  <path
     inkscape:export-ydpi="31.709999"
     inkscape:export-xdpi="31.709999"
     inkscape:export-filename="/home/jaka/Documents/WebDev/jakanggara/geokom/public/favicon.ico.png"
     id="path10"
     style="fill:#d4aa00;fill-rule:evenodd"
     d="M 168.1893,81.3482 170.1729,6.696 173.3097,7.6694 171.326,81.422 Z" />
  <path
     inkscape:export-ydpi="31.709999"
     inkscape:export-xdpi="31.709999"
     inkscape:export-filename="/home/jaka/Documents/WebDev/jakanggara/geokom/public/favicon.ico.png"
     id="path12"
     style="fill:#d4aa00;fill-rule:evenodd"
     d="m 171.113,46.7917 -26.8063,-0.3213 0.0381,-3.1367 26.8063,0.3213 z" />
  <path
     inkscape:export-ydpi="31.709999"
     inkscape:export-xdpi="31.709999"
     inkscape:export-filename="/home/jaka/Documents/WebDev/jakanggara/geokom/public/favicon.ico.png"
     id="path14"
     style="fill:#d4aa00;fill-rule:evenodd"
     d="m 217.343,169.6671 c 0.4796,-1.2078 0.4224,-2.5048 -0.0583,-3.6186 -0.4784,-1.1115 -1.3816,-2.042 -2.5894,-2.5216 -1.209,-0.4795 -2.5048,-0.4224 -3.6186,0.0583 -1.1115,0.4784 -2.042,1.3816 -2.5216,2.5894 -0.4795,1.2078 -0.4236,2.5049 0.0572,3.6187 0.4783,1.1114 1.3827,2.0419 2.5905,2.5215 1.2078,0.4795 2.5061,0.4224 3.6187,-0.0571 1.1126,-0.4796 2.0419,-1.3828 2.5215,-2.5906 z m 2.8309,-4.861 c 0.7961,1.8433 0.8865,3.9959 0.0845,6.0177 -0.8032,2.0217 -2.3478,3.5258 -4.1946,4.3231 -1.8433,0.7937 -3.9971,0.8853 -6.0176,0.0833 -2.0218,-0.8032 -3.5283,-2.3478 -4.3232,-4.1946 -0.7961,-1.8433 -0.8853,-3.9971 -0.0833,-6.0177 0.8033,-2.0217 2.3478,-3.527 4.1946,-4.3219 1.8433,-0.7961 3.9959,-0.8865 6.0177,-0.0845 2.0217,0.8032 3.527,2.3478 4.3219,4.1946 z" />
  <path
     inkscape:export-ydpi="31.709999"
     inkscape:export-xdpi="31.709999"
     inkscape:export-filename="/home/jaka/Documents/WebDev/jakanggara/geokom/public/favicon.ico.png"
     id="path16"
     style="fill:#d4aa00;fill-rule:evenodd"
     d="m 219.8895,169.7338 69.2534,27.3572 -1.1567,2.9273 -69.2533,-27.3572 z" />
  <path
     inkscape:export-ydpi="31.709999"
     inkscape:export-xdpi="31.709999"
     inkscape:export-filename="/home/jaka/Documents/WebDev/jakanggara/geokom/public/favicon.ico.png"
     id="path18"
     style="fill:#d4aa00;fill-rule:evenodd"
     d="m 231.6559,175.9965 6.0259,-20.9707 0.4141,-1.4458 1.4553,0.3451 21.9501,5.1966 1.5874,0.3748 -0.426,1.5684 -2.9856,10.9821 34.0483,7.5765 -0.6759,3.063 -35.6595,-7.9347 -1.6124,-0.3593 0.4319,-1.5839 2.9904,-11 -18.9085,-4.4766 -5.6107,19.5261 z" />
  <path
     inkscape:export-ydpi="31.709999"
     inkscape:export-xdpi="31.709999"
     inkscape:export-filename="/home/jaka/Documents/WebDev/jakanggara/geokom/public/favicon.ico.png"
     id="path20"
     style="fill:#d4aa00;fill-rule:evenodd"
     d="m 245.8854,182.527 -10.6359,18.9906 -0.783,1.3959 -1.3815,-0.8116 -45.0317,-26.4493 1.5874,-2.7059 43.649,25.6377 9.854,-17.5948 z" />
  <path
     inkscape:export-ydpi="31.709999"
     inkscape:export-xdpi="31.709999"
     inkscape:export-filename="/home/jaka/Documents/WebDev/jakanggara/geokom/public/favicon.ico.png"
     id="path22"
     style="fill:#d4aa00;fill-rule:evenodd"
     d="m 198.5392,99.5272 c -1.0757,-0.7318 -2.3501,-0.9579 -3.5377,-0.7342 v 10e-4 c -1.1876,0.2261 -2.2931,0.908 -3.0273,1.9861 -0.7318,1.0757 -0.9579,2.3501 -0.7342,3.5377 h 0.001 c 0.2261,1.1876 0.9079,2.2931 1.986,3.0273 1.0758,0.7318 2.3502,0.9579 3.5378,0.7342 v -0.001 c 1.19,-0.2273 2.2966,-0.9056 3.0261,-1.9801 v -0.006 c 0.733,-1.0769 0.9591,-2.3549 0.7342,-3.5437 -0.2249,-1.184 -0.9068,-2.2871 -1.9861,-3.0213 z m -4.122,-3.8197 c 1.9741,-0.3749 4.097,0.004 5.8927,1.2256 1.7933,1.2197 2.9261,3.057 3.3021,5.0371 0.3737,1.9742 -0.005,4.0971 -1.2268,5.8927 l -0.002,-0.002 c -1.2221,1.7957 -3.0558,2.9285 -5.0276,3.3046 h -0.006 c -1.9742,0.3748 -4.0971,-0.004 -5.8927,-1.2257 -1.7933,-1.2209 -2.9249,-3.0558 -3.3022,-5.0312 v -0.006 c -0.3748,-1.9742 0.004,-4.0971 1.2257,-5.8927 1.2209,-1.7933 3.057,-2.9249 5.0312,-3.3021 z" />
  <path
     inkscape:export-ydpi="31.709999"
     inkscape:export-xdpi="31.709999"
     inkscape:export-filename="/home/jaka/Documents/WebDev/jakanggara/geokom/public/favicon.ico.png"
     id="path24"
     style="fill:#d4aa00;fill-rule:evenodd"
     d="m 199.2746,97.302 41.8474,-59.6563 2.5703,1.8087 -41.8474,59.6563 z" />
  <path
     inkscape:export-ydpi="31.709999"
     inkscape:export-xdpi="31.709999"
     inkscape:export-filename="/home/jaka/Documents/WebDev/jakanggara/geokom/public/favicon.ico.png"
     id="path26"
     style="fill:#d4aa00;fill-rule:evenodd"
     d="m 216.604,75.0949 -11.8817,-7.317 -1.2745,-0.7854 0.7283,-1.3113 21.5121,-38.7678 2.7417,1.5255 -20.7839,37.4553 10.6073,6.5329 z" />
  <path
     inkscape:export-ydpi="31.709999"
     inkscape:export-xdpi="31.709999"
     inkscape:export-filename="/home/jaka/Documents/WebDev/jakanggara/geokom/public/favicon.ico.png"
     id="path28"
     style="fill:#d4aa00;fill-rule:evenodd"
     d="m 218.1284,132.2928 68.2538,-35.6143 0.777,3.2414 -67.5791,35.1646 z" />
  <path
     inkscape:export-ydpi="31.709999"
     inkscape:export-xdpi="31.709999"
     inkscape:export-filename="/home/jaka/Documents/WebDev/jakanggara/geokom/public/favicon.ico.png"
     id="path30"
     style="fill:#d4aa00;fill-rule:evenodd"
     d="m 243.9232,120.9227 -6.5353,-16.1358 -45.1959,26.8038 -1.5993,-2.7059 46.7666,-27.7357 1.5708,-0.9317 0.6866,1.6945 7.2219,17.8304 z" />
  <path
     inkscape:export-ydpi="31.709999"
     inkscape:export-xdpi="31.709999"
     inkscape:export-filename="/home/jaka/Documents/WebDev/jakanggara/geokom/public/favicon.ico.png"
     id="path32"
     style="fill:#d4aa00;fill-rule:evenodd"
     d="m 196.5139,151.0121 33.7235,-2.5739 -2.6595,-19.8485 3.1105,-0.407 2.8797,21.4943 0.2202,1.6445 -1.6588,0.1273 -35.3824,2.7 z" />
  <path
     inkscape:export-ydpi="31.709999"
     inkscape:export-xdpi="31.709999"
     inkscape:export-filename="/home/jaka/Documents/WebDev/jakanggara/geokom/public/favicon.ico.png"
     id="path34"
     style="fill:#d4aa00;fill-rule:evenodd"
     d="m 195.7642,202.7159 c 1.0472,-0.7699 1.6862,-1.8956 1.8671,-3.0879 0.1832,-1.1995 -0.0904,-2.468 -0.8627,-3.5187 -0.7699,-1.0472 -1.8956,-1.6862 -3.088,-1.8671 -1.1995,-0.1832 -2.468,0.0904 -3.5187,0.8627 -1.0472,0.7699 -1.6862,1.8944 -1.867,3.088 -0.1833,1.1995 0.0904,2.468 0.8627,3.5187 0.7699,1.0472 1.8944,1.6862 3.0879,1.867 1.1983,0.1833 2.468,-0.0904 3.5187,-0.8627 z m 4.9776,-2.6215 c -0.3022,1.9908 -1.3696,3.8686 -3.1212,5.1561 -1.7505,1.2864 -3.8555,1.7421 -5.8415,1.4387 -1.9908,-0.3022 -3.8686,-1.3696 -5.1561,-3.1213 -1.2864,-1.7504 -1.7421,-3.8554 -1.4387,-5.8415 0.3022,-1.9908 1.3696,-3.8686 3.1213,-5.1561 1.7516,-1.2875 3.8554,-1.7421 5.8415,-1.4387 1.9908,0.3023 3.8685,1.3697 5.1561,3.1213 1.2875,1.7516 1.7421,3.8555 1.4386,5.8415 z" />
  <path
     inkscape:export-ydpi="31.709999"
     inkscape:export-xdpi="31.709999"
     inkscape:export-filename="/home/jaka/Documents/WebDev/jakanggara/geokom/public/favicon.ico.png"
     id="path36"
     style="fill:#d4aa00;fill-rule:evenodd"
     d="m 198.0073,203.1288 41.3095,63.7058 -2.6322,1.7088 -41.3095,-63.7058 z" />
  <path
     inkscape:export-ydpi="31.709999"
     inkscape:export-xdpi="31.709999"
     inkscape:export-filename="/home/jaka/Documents/WebDev/jakanggara/geokom/public/favicon.ico.png"
     id="path38"
     style="fill:#d4aa00;fill-rule:evenodd"
     d="m 210.4448,223.6771 -13.0456,9.9683 23.6577,45.015 -2.7798,1.4637 -24.2752,-46.1895 -0.6176,-1.1757 1.0543,-0.8044 14.0999,-10.774 z" />
  <path
     inkscape:export-ydpi="31.709999"
     inkscape:export-xdpi="31.709999"
     inkscape:export-filename="/home/jaka/Documents/WebDev/jakanggara/geokom/public/favicon.ico.png"
     id="path40"
     style="fill:#d4aa00;fill-rule:evenodd"
     d="m 165.92,217.1418 c 1.3018,-0.006 2.4835,-0.5438 3.3355,-1.4053 0.8484,-0.8568 1.372,-2.0444 1.366,-3.3486 -0.006,-1.3018 -0.5438,-2.4834 -1.4053,-3.3354 -0.858,-0.8485 -2.0444,-1.3721 -3.3486,-1.3649 l -0.006,0.006 h -0.002 v -0.006 c -1.2982,0.008 -2.4763,0.545 -3.3271,1.4041 -0.8496,0.858 -1.3732,2.0432 -1.3661,3.3462 l 0.006,0.006 v 0.002 h -0.006 c 0.008,1.2995 0.545,2.4787 1.4054,3.3295 0.8567,0.8485 2.0443,1.3721 3.3485,1.3661 z m 5.5607,0.808 c -1.4125,1.4268 -3.3771,2.318 -5.5488,2.3288 -2.1693,0.01 -4.1434,-0.8616 -5.5738,-2.2776 -1.4267,-1.4125 -2.318,-3.3771 -2.3287,-5.5488 l -0.006,-0.006 v -0.002 h 0.006 c -0.008,-2.1658 0.8615,-4.1364 2.2776,-5.5655 1.4113,-1.4268 3.3747,-2.318 5.5464,-2.3276 l 0.006,-0.006 h 0.002 v 0.006 c 2.1669,-0.008 4.1387,0.8616 5.5678,2.2764 1.428,1.4137 2.3193,3.376 2.3288,5.5488 0.01,2.1693 -0.8615,4.1435 -2.2776,5.5738 z" />
  <path
     inkscape:export-ydpi="31.709999"
     inkscape:export-xdpi="31.709999"
     inkscape:export-filename="/home/jaka/Documents/WebDev/jakanggara/geokom/public/favicon.ico.png"
     id="path42"
     style="fill:#d4aa00;fill-rule:evenodd"
     d="m 166.8827,219.9715 0.8401,76.2647 -3.1367,0.0238 -0.8402,-76.2647 z" />
  <path
     inkscape:export-ydpi="31.709999"
     inkscape:export-xdpi="31.709999"
     inkscape:export-filename="/home/jaka/Documents/WebDev/jakanggara/geokom/public/favicon.ico.png"
     id="path44"
     style="fill:#d4aa00;fill-rule:evenodd"
     d="m 165.9593,273.3996 20.3483,-4.2136 1.3233,-0.2749 0.4664,1.2768 7.1255,19.5082 -2.9511,1.071 -6.659,-18.2326 -19.0251,3.94 z" />
  <path
     inkscape:export-ydpi="31.709999"
     inkscape:export-xdpi="31.709999"
     inkscape:export-filename="/home/jaka/Documents/WebDev/jakanggara/geokom/public/favicon.ico.png"
     id="path46"
     style="fill:#d4aa00;fill-rule:evenodd"
     d="m 222.8002,244.7941 15.4457,-9.6077 0.9733,-0.6069 0.8723,0.7414 17.8899,15.3398 -2.0301,2.3989 -17.0188,-14.5996 -14.4712,9.002 z" />
  <path
     inkscape:export-ydpi="31.709999"
     inkscape:export-xdpi="31.709999"
     inkscape:export-filename="/home/jaka/Documents/WebDev/jakanggara/geokom/public/favicon.ico.png"
     id="path48"
     style="fill:#1b1918;fill-rule:evenodd;stroke:#d4aa00;stroke-width:1.4998;stroke-linecap:butt;stroke-linejoin:miter;stroke-dasharray:none"
     d="m 78.872,155.9527 9.8822,2.3352 c 1.2694,-14.393 3.9332,-24.0924 8.4931,-37.5389 -1.7732,0.2767 -0.8832,0.1297 -2.5641,0.8486 l -2.6718,1.1786 -3.7646,-4.1761 c -1.8927,13.9653 -4.1008,24.1692 -9.3748,37.3529 z m -34.5958,-48.7773 2.7871,1.1361 c 1.1264,0.1492 2.266,0.1636 3.4061,0.2846 6.8933,0.729 29.1701,3.5661 34.0596,5.3432 1.4334,0.5207 3.1053,2.3807 4.1041,3.4656 1.113,1.2081 2.6682,3.441 3.6518,4.2251 l 7.534,-2.8826 c 3.6475,-1.1382 6.2674,0.5776 10.5714,1.5491 l 2.8739,-8.6694 c -15.5846,-6.5059 -36.6201,-10.4363 -53.4751,-7.9782 -3.8807,0.5665 -13.3236,1.0273 -15.5129,3.5265 z m 44.0834,51.7441 -9.5942,-2.1046 c -4.1495,14.9984 -8.1649,28.2567 -12.0059,43.5645 -1.5289,6.0905 -3.297,8.8938 3.6994,10.8381 9.7946,2.7219 8.514,-4.9393 12.1849,-22.6223 1.2658,-6.0995 5.8758,-24.5894 5.7162,-29.6757 z" />
  <path
     inkscape:export-ydpi="31.709999"
     inkscape:export-xdpi="31.709999"
     inkscape:export-filename="/home/jaka/Documents/WebDev/jakanggara/geokom/public/favicon.ico.png"
     id="path50"
     style="fill:#1b1918;fill-rule:evenodd;stroke:#d4aa00;stroke-width:0.7999;stroke-linecap:butt;stroke-linejoin:miter;stroke-dasharray:none"
     d="m 196.6446,151.4391 a 45.3375,45.3375 0 0 1 -45.3375,45.3375 45.3375,45.3375 0 1 1 45.3375,-45.3375 z" />
  <path
     inkscape:export-ydpi="31.709999"
     inkscape:export-xdpi="31.709999"
     inkscape:export-filename="/home/jaka/Documents/WebDev/jakanggara/geokom/public/favicon.ico.png"
     id="path52"
     style="fill:#d4aa00;fill-rule:evenodd"
     d="m 140.9574,119.676 c 0.3398,0.3402 0.3397,0.8936 -2e-4,1.2334 -0.3393,0.3396 -0.893,0.3401 -1.2326,2e-4 -0.3393,-0.3398 -0.3396,-0.8929 2e-4,-1.2327 0.3397,-0.3395 0.8933,-0.3396 1.2326,-9e-4 z m -8.2774,0.001 c 0.3402,-0.3399 0.8936,-0.3398 1.2333,2e-4 0.3396,0.3392 0.3402,0.8929 2e-4,1.2325 -0.3398,0.3394 -0.8929,0.3397 -1.2327,-1e-4 -0.3395,-0.3397 -0.3396,-0.8934 -8e-4,-1.2326 z m 5.6534,-1.5156 c 0.4643,0.1248 0.7411,0.6042 0.6164,1.0682 -0.1239,0.4637 -0.6032,0.741 -1.0673,0.6165 -0.4637,-0.1246 -0.7405,-0.6035 -0.6162,-1.0676 0.1244,-0.4639 0.6038,-0.7408 1.0671,-0.6171 z m 4.1395,7.1681 c -0.1247,0.4644 -0.6041,0.7411 -1.0682,0.6165 -0.4637,-0.124 -0.7409,-0.6032 -0.6164,-1.0674 0.1246,-0.4637 0.6034,-0.7405 1.0676,-0.6162 0.4638,0.1245 0.7406,0.6038 0.617,1.0671 z m -11.3075,-3.0285 c 0.1247,-0.4644 0.6041,-0.7411 1.0682,-0.6165 0.4637,0.124 0.7409,0.6032 0.6164,1.0674 -0.1246,0.4637 -0.6034,0.7405 -1.0676,0.6162 -0.4638,-0.1245 -0.7406,-0.6038 -0.617,-1.0671 z m 11.3071,-0.001 c 0.1242,0.4645 -0.1525,0.9438 -0.6168,1.0679 -0.4636,0.1245 -0.9433,-0.1519 -1.0675,-0.6161 -0.124,-0.464 0.1523,-0.9431 0.6165,-1.0675 0.4638,-0.1241 0.9434,0.1526 1.0678,0.6157 z m -7.1688,-4.138 c 0.4645,-0.1242 0.9437,0.1526 1.0679,0.6168 0.1245,0.4636 -0.1519,0.9433 -0.6161,1.0676 -0.4639,0.1239 -0.9431,-0.1524 -1.0674,-0.6166 -0.1242,-0.4638 0.1525,-0.9433 0.6156,-1.0678 z m -4.1379,7.1689 c -0.1242,-0.4645 0.1525,-0.9438 0.6168,-1.0679 0.4636,-0.1245 0.9433,0.1519 1.0675,0.6161 0.124,0.464 -0.1523,0.9431 -0.6165,1.0675 -0.4638,0.1241 -0.9434,-0.1526 -1.0678,-0.6157 z m 29.3979,-3.4416 1.5608,1.2956 c 0.3012,-1.6625 -1.0358,-3.2501 -1.8643,-4.5425 2.5559,-0.0901 4.5703,-0.1202 6.8568,1.6317 2.1096,1.6165 2.6934,4.104 3.0715,6.6131 -1.4183,-0.5748 -3.2349,-1.6052 -4.8087,-0.9994 l 0.6507,0.5402 0.5614,-0.6612 c 0.6728,0.7883 0.9897,1.4412 1.0433,1.9936 l 0.0461,0.0383 0.0782,-0.0921 c 0.3212,-0.3784 0.8935,-0.4252 1.2719,-0.104 l 0.2227,0.1891 c 0.2159,0.1833 0.3237,0.4482 0.3169,0.7124 0.2596,-0.0496 0.5386,0.014 0.7546,0.1974 l 0.2227,0.1891 c 0.2159,0.1833 0.3237,0.4483 0.3169,0.7124 0.2595,-0.0496 0.5386,0.014 0.7546,0.1974 l 0.2227,0.189 c 0.2159,0.1835 0.3238,0.4483 0.317,0.7124 0.2595,-0.0496 0.5386,0.014 0.7545,0.1974 l 0.2228,0.1891 c 0.9214,0.7824 -0.6794,2.9234 -1.2024,3.5395 -0.5716,0.6731 -1.2281,1.2108 -1.9105,1.598 0.2645,0.0939 0.542,0.1836 0.8352,0.2704 -0.6887,1.1782 -1.4064,2.3087 -2.292,3.242 -0.6048,0.6372 -1.2883,1.1828 -2.0944,1.5884 3.3255,2.6363 5.6068,6.2886 5.6072,10.9223 v 9e-4 4e-4 c -1e-4,3.4063 -1.1938,6.4998 -3.134,9.1219 0.0185,-2e-4 0.037,-4e-4 0.0556,-4e-4 3.4357,2e-4 5.4915,3.4414 5.4916,6.5238 0,3.0891 -2.0795,6.525 -5.492,6.5252 -1.5082,0 -2.8512,-0.5024 -4.2052,-0.9745 -1.5476,-0.5395 -3.2524,-1.134 -5.2165,-1.134 -0.8827,0 -1.5842,0.5775 -2.2111,1.0937 -0.7903,0.6507 -1.505,1.2391 -2.5736,1.2391 -2.0582,0 -3.0731,-2.3395 -3.4862,-4.4601 h -0.001 -5e-4 c -4e-4,0 -7e-4,0 -10e-4,0 -0.4132,2.1206 -1.4277,4.4601 -3.4858,4.4601 -1.0686,0 -1.7834,-0.5884 -2.5736,-1.2391 -0.6269,-0.5162 -1.3285,-1.0937 -2.2111,-1.0937 -1.9641,0 -3.6689,0.5945 -5.2165,1.134 -1.3541,0.4721 -2.6971,0.9745 -4.2052,0.9745 -3.4125,-2e-4 -5.492,-3.4361 -5.492,-6.5252 1e-4,-3.0824 2.0559,-6.5235 5.4916,-6.5238 0.0186,0 0.0371,2e-4 0.0556,4e-4 -1.9402,-2.622 -3.1338,-5.7153 -3.134,-9.1215 v -8e-4 -6e-4 c 1e-4,-4.6338 2.2812,-8.2862 5.6066,-10.9225 -0.8061,-0.4056 -1.4893,-0.9513 -2.0942,-1.5885 -0.8856,-0.9332 -1.6033,-2.0638 -2.292,-3.242 1.4034,-0.4155 2.4423,-0.8967 3.4551,-1.6013 -1.8827,-0.3351 -3.3473,-2.6075 -3.3473,-5.345 0,-0.8081 0.1654,-3.4764 1.3742,-3.4764 h 0.2921 c 0.2833,0 0.5373,0.1322 0.703,0.338 0.1658,-0.2058 0.4194,-0.338 0.7027,-0.338 h 0.2921 c 0.2833,0 0.5373,0.1322 0.703,0.338 0.1657,-0.2058 0.4194,-0.338 0.7027,-0.338 h 0.2922 c 0.2833,0 0.5372,0.1322 0.7029,0.338 0.1657,-0.2058 0.4194,-0.338 0.7027,-0.338 h 0.2922 c 0.4962,0 0.9022,0.4061 0.9022,0.9024 v 0.1821 c 0.4297,-0.4584 1.2088,-0.7936 2.4828,-0.9535 l -0.3372,0.5136 v 4.1534 h 1.0171 v -0.3713 c 0,-6.6506 6.8705,-7.209 8.6194,-9.3013 1.7488,2.0923 8.6193,2.6513 8.6193,9.3013 v 0.3713 h 1.3994 c 0.6962,0 1.3248,0.2255 1.9044,0.5665 l 0.0138,-1.7279 0.8592,-1.012 -5.4409,-4.5174 z m -0.7173,25.2417 c 1.4195,-1.9868 2.2628,-4.4098 2.3458,-7.238 -0.3998,-0.202 -1.1584,-0.4926 -1.578,-0.6725 -0.1628,2.1956 -0.8867,4.3096 -2.0882,6.1929 0.367,0.5814 0.7993,1.1486 1.3204,1.7176 z m 8.8562,-18.7682 c 0.247,0.2099 0.2776,0.5834 0.0678,0.8305 l -1.1665,1.3739 c -0.2097,0.247 -0.5834,0.2776 -0.8305,0.0678 l -0.1453,-0.1235 c -0.247,-0.2096 -0.2775,-0.5833 -0.0678,-0.8304 l 1.1665,-1.3738 c 0.2098,-0.2471 0.5834,-0.2776 0.8304,-0.0679 z m 1.2943,1.0989 c 0.247,0.2098 0.2775,0.5834 0.0677,0.8305 l -1.1664,1.3739 c -0.2098,0.2471 -0.5834,0.2776 -0.8305,0.0677 l -0.1453,-0.1233 c -0.2471,-0.2098 -0.2776,-0.5834 -0.0678,-0.8304 l 1.1664,-1.374 c 0.2098,-0.247 0.5834,-0.2776 0.8305,-0.0678 z m 1.2941,1.0989 c 0.2471,0.2098 0.2776,0.5834 0.0679,0.8304 l -1.1666,1.3739 c -0.2096,0.2471 -0.5833,0.2776 -0.8304,0.0679 l -0.1453,-0.1235 c -0.247,-0.2097 -0.2776,-0.5834 -0.0678,-0.8304 l 1.1665,-1.3739 c 0.2098,-0.247 0.5834,-0.2775 0.8303,-0.0678 z m 1.2943,1.0989 c 0.2471,0.2098 0.2776,0.5834 0.0678,0.8304 l -1.1665,1.3739 c -0.2097,0.2471 -0.5833,0.2776 -0.8304,0.0678 l -0.1454,-0.1234 c -0.247,-0.2097 -0.2775,-0.5833 -0.0677,-0.8304 l 1.1664,-1.3739 c 0.2098,-0.2471 0.5834,-0.2775 0.8304,-0.0679 z m -29.068,5.8756 c -2.3238,0.5831 -4.331,1.8669 -6.3241,3.0547 -1.5745,-0.4443 -2.9714,-2.0824 -3.7579,-3.4274 1.6185,-0.479 2.9216,-1.629 4.2546,-2.8562 1.2522,-1.1527 2.3733,-2.3163 3.5986,-2.3163 h 1.3991 v 2.5202 c 0,1.1323 0.3411,2.1534 0.8297,3.025 z m 13.6735,12.3366 c 0.9506,-0.7361 1.7892,-1.5774 2.4949,-2.5209 -0.8578,-0.107 -1.5468,-0.2498 -2.1978,-0.5113 -0.668,0.81 -1.4335,1.5624 -2.2882,2.2427 0.594,0.3403 1.2879,0.5782 1.9911,0.7895 z m 2.8682,-25.8208 0.6346,-0.7644 1.805,1.4986 c 0.8667,-1.2693 1.0327,-2.8715 -0.4681,-5.2132 1.6031,-0.0566 3.2314,0.45 4.5576,1.5511 1.3262,1.1012 2.1235,2.6084 2.3624,4.1945 -2.5776,-1.0445 -4.1216,-0.5865 -5.2099,0.4989 l 1.6477,1.368 -0.6431,0.7574 z m -1.5097,14.3918 c 0.4425,0.1333 0.8775,0.2786 1.3036,0.4351 -0.0333,2.273 -0.6442,4.2293 -1.6898,5.918 -0.2696,-0.4934 -0.4998,-1.0002 -0.704,-1.53 -0.4092,-1.0611 -0.6123,-2.1962 -0.7797,-3.3301 0.6279,-0.4734 1.3452,-0.8992 1.8699,-1.493 z m -7.2423,-4.3133 c 0,-1.3153 1.0763,-2.1542 2.392,-2.1542 h 5.0636 v 2.1098 c 0,1.8131 -0.7731,3.3955 -1.9245,4.2686 -1.8616,1.4115 -4.3248,3.1884 -4.3248,5.9724 v 2.1556 c 0,2.6705 1.9463,3.5095 4.0225,4.1098 2.5058,0.7243 5.2227,1.0793 5.2227,3.5987 v 0.3008 h -2.9235 c -0.5262,-1.2264 -4.0552,-2.0358 -5.2601,-2.3504 -2.4621,-0.6431 -4.8465,-2.236 -4.8496,-5.3221 l -0.004,-3.8196 c -0.002,-1.9608 -1.7814,-3.0009 -3.1764,-4.5876 -0.9543,-1.0855 -1.6937,-2.513 -1.6937,-4.3262 v -2.1098 h 5.0637 c 1.3156,0 2.392,0.8388 2.392,2.1542 z m 4.5242,6.4784 c 0.3783,2.3685 0.9191,4.0303 2.4069,5.6949 -1.8882,-0.9443 -2.971,-1.9956 -4.0585,-3.8893 0.4294,-0.6794 1.0172,-1.2705 1.6516,-1.8056 z m -10.0941,-0.417 c -0.2056,1.3009 -0.6754,2.2281 -1.2232,3.3569 0.2699,0.2931 0.526,0.5999 0.7583,0.9219 0.7938,-0.7661 1.5611,-1.3654 2.1344,-2.337 -0.4119,-0.6883 -1.031,-1.3129 -1.6695,-1.9418 z m 23.2048,-4.4071 c 0.6688,-0.2152 1.3437,-0.6147 1.9414,-1.1786 -0.1963,-0.007 -0.3912,-0.0768 -0.5516,-0.213 l -0.2226,-0.1891 c -0.2159,-0.1832 -0.3238,-0.4488 -0.3169,-0.713 -0.2596,0.0496 -0.5388,-0.0134 -0.7547,-0.1968 l -0.2227,-0.189 c -0.2159,-0.1834 -0.3237,-0.4488 -0.3168,-0.713 -0.2596,0.0496 -0.5389,-0.0136 -0.7548,-0.1969 l -0.2226,-0.189 c -0.2159,-0.1833 -0.3237,-0.4488 -0.3169,-0.713 -0.2595,0.0496 -0.5387,-0.0135 -0.7547,-0.1968 l -0.2227,-0.1891 c -0.3782,-0.3211 -0.4249,-0.8935 -0.1037,-1.2718 l 0.6885,-0.811 c 0.143,-0.5638 0.0401,-1.0872 -0.23,-1.4775 l -2.3043,2.7435 0.0819,2.1766 c 0.4653,0.4 0.9015,0.8321 1.3214,1.2186 1.1353,1.0449 2.0944,1.7517 3.2618,2.2989 z m -32.2585,-8.9179 h 0.1907 c 0.3241,0 0.5891,0.2652 0.5891,0.5892 v 1.8023 c 0,0.3242 -0.265,0.5892 -0.5891,0.5892 h -0.1907 c -0.3241,0 -0.5892,-0.265 -0.5892,-0.5892 v -1.8023 c 0,-0.324 0.2651,-0.5892 0.5892,-0.5892 z m 3.9546,4.0718 0.0186,-3.4738 c -0.4587,0.1228 -0.8758,0.4552 -1.1317,0.9775 v 1.0638 c 0,0.4964 -0.4061,0.9024 -0.9022,0.9024 h -0.2922 c -0.2832,0 -0.537,-0.1325 -0.7027,-0.3385 -0.1657,0.206 -0.4198,0.3385 -0.7029,0.3385 h -0.2922 c -0.2832,0 -0.537,-0.1325 -0.7027,-0.3385 -0.1657,0.206 -0.4197,0.3385 -0.703,0.3385 h -0.2921 c -0.2833,0 -0.5369,-0.1325 -0.7027,-0.3385 -0.1657,0.206 -0.4197,0.3385 -0.703,0.3385 h -0.2921 c -0.2104,0 -0.4044,-0.0726 -0.5583,-0.1946 0.2113,1.9033 1.5569,3.6889 3.5718,3.877 0.2227,-0.1884 0.4492,-0.3894 0.6835,-0.6051 1.0615,-0.9769 2.2259,-2.2462 3.7039,-2.5472 z m -2.2568,-4.0718 h 0.1907 c 0.3241,0 0.5891,0.2652 0.5891,0.5892 v 1.8023 c 0,0.3242 -0.265,0.5892 -0.5891,0.5892 h -0.1907 c -0.3241,0 -0.5892,-0.265 -0.5892,-0.5892 v -1.8023 c 0,-0.324 0.2651,-0.5892 0.5892,-0.5892 z m -5.0934,0 h 0.1907 c 0.324,0 0.5891,0.2652 0.5891,0.5892 v 1.8023 c 0,0.3242 -0.2651,0.5892 -0.5891,0.5892 h -0.1907 c -0.3241,0 -0.5891,-0.265 -0.5891,-0.5892 v -1.8023 c 0,-0.324 0.265,-0.5892 0.5891,-0.5892 z m 1.6978,0 h 0.1907 c 0.324,0 0.5891,0.2652 0.5891,0.5892 v 1.8023 c 0,0.3242 -0.2651,0.5892 -0.5891,0.5892 h -0.1907 c -0.3241,0 -0.5891,-0.265 -0.5891,-0.5892 v -1.8023 c 0,-0.324 0.265,-0.5892 0.5891,-0.5892 z m 24.9407,5.1241 h 1.3991 c 1.2253,0 2.3464,1.1636 3.5986,2.3163 1.333,1.2272 2.6361,2.3772 4.2546,2.8562 -0.7865,1.345 -2.1834,2.9831 -3.7579,3.4274 -1.9729,-1.1758 -3.96,-2.4458 -6.2539,-3.037 0.4771,-0.8727 0.7595,-1.9481 0.7595,-3.0427 z m -12.4264,-7.3165 c -0.7816,0.9156 -1.3112,2.6496 -1.3112,4.6308 v 1.1431 l -2.2841,0.003 v -0.5151 c 0,-2.6619 1.4922,-4.8779 3.5953,-5.2616 z m 7.6142,0 c 2.103,0.3837 3.5952,2.5997 3.5952,5.2616 v 0.5151 l -2.284,-0.003 v -1.1431 c 0,-1.9812 -0.5297,-3.7152 -1.3112,-4.6308 z m -0.0819,5.7358 -1.0117,0.036 c -1.0866,0.0387 -1.9769,-0.8894 -1.9769,-1.9768 v -5.1231 c 1.7383,0.3069 3.0363,3.3402 2.9886,7.0639 z m -7.4504,0 c -0.0477,-3.7237 1.2503,-6.757 2.9885,-7.0639 v 5.1231 c 0,1.0874 -0.8903,2.0155 -1.9768,1.9768 z m 9.2701,16.1298 c -0.6778,0.7564 -1.453,1.4491 -2.3074,2.0844 -0.6451,-0.5587 -1.0644,-1.3378 -1.0644,-2.5004 v -1.3773 c 0,-0.4624 0.0734,-0.8919 0.2044,-1.2933 0.4141,0.6849 0.8774,1.3328 1.4872,1.8682 0.6136,0.5387 1.1485,0.9288 1.6802,1.2184 z m -7.1644,4.8144 c -0.139,0.0599 -0.2786,0.1194 -0.4192,0.1778 -3.1818,1.3208 -6.0355,3.4023 -7.9999,6.0257 v -5.5722 c -0.6074,0.1072 -1.1765,0.3418 -1.6884,0.6752 v -5.5695 c -0.7379,1.355 -0.9904,2.855 -0.9904,5.1229 v 1.2884 c -0.0483,0.0525 -0.0957,0.1062 -0.1422,0.1608 v -0.9209 h -3.5958 v 1.9395 h -0.4193 c -0.496,0 -0.9024,0.406 -0.9024,0.9023 v 0.43 c 0,0.2832 0.1322,0.5369 0.338,0.7026 -0.2058,0.1658 -0.338,0.4198 -0.338,0.703 v 0.2922 c 0,0.2833 0.1322,0.5369 0.338,0.7027 -0.1678,0.1352 -0.2865,0.3289 -0.3246,0.5495 -1.2113,-2.1436 -1.8901,-4.4459 -1.8901,-6.7136 0,-6.2617 5.1716,-11.6399 12.4514,-13.8191 0.2394,0.3174 0.5019,0.6146 0.7763,0.902 -0.3086,1.5401 -0.7636,2.8596 -1.5032,4.3823 0.2685,0.2916 0.5452,0.5789 0.7975,0.8848 v 0.004 c 0.3455,0.4181 0.6517,0.8686 0.9689,1.3081 0.9719,-0.9378 1.8987,-1.7655 2.6797,-2.7872 0.0514,0.2149 0.0796,0.4375 0.0799,0.6691 l 0.004,3.3198 c 0.002,1.84 0.6974,3.2582 1.78,4.2401 z m 13.2277,-11.0774 c 4.8729,2.7079 8.0462,7.0695 8.0462,11.9738 0,2.9714 -1.1652,6.0019 -3.1671,8.6573 -5e-4,3e-4 -8e-4,5e-4 -0.001,9e-4 -7e-4,0.001 -10e-4,0.002 -0.002,0.004 -0.2391,0.3169 -0.4893,0.6288 -0.7516,0.9342 -0.8785,0.8173 -2.1526,1.333 -3.5665,1.333 -2.277,0 -4.1922,-1.3366 -4.675,-3.1174 0.1907,0.0816 0.4078,0.1298 0.6489,0.1383 0.4293,0.0154 0.8645,-0.107 1.1731,-0.3713 0.2902,0.2476 0.7008,0.3723 1.1115,0.3725 0.4108,4e-4 0.8215,-0.1233 1.112,-0.3713 0.2903,0.2473 0.7007,0.3712 1.1111,0.3713 0.4103,0 0.8209,-0.1235 1.1111,-0.3713 0.3079,0.2622 0.7419,0.3847 1.1705,0.3703 1.0329,-0.035 1.6023,-0.7438 1.6023,-1.7565 0,-0.6643 -0.2639,-1.2137 -0.7451,-1.5138 0.9542,-0.6413 1.5577,-1.4965 1.6105,-2.4387 h -4.6784 v -2.2776 c 0,-2.2679 -0.2525,-3.7679 -0.9904,-5.1229 v 7.4005 h -0.1984 v -0.275 c 0,-2.3324 -2.1981,-3.3047 -4.5127,-4.0107 2.7469,-2.3624 4.3814,-5.8596 4.5914,-9.9292 z m -22.3831,13.0342 -3e-4,4.7759 c 0,0.9837 -0.8113,3.1995 -2.0234,3.579 0.1293,-0.1539 0.2064,-0.3478 0.2064,-0.5583 v -0.2921 c 0,-0.2832 -0.1407,-0.5373 -0.3591,-0.703 0.2184,-0.1657 0.3591,-0.4195 0.3591,-0.7027 v -0.2922 c 0,-0.2831 -0.1407,-0.5372 -0.3591,-0.7029 0.2184,-0.1658 0.3591,-0.4195 0.3591,-0.7027 v -0.2922 c 0,-0.2832 -0.1407,-0.5372 -0.3591,-0.703 0.2184,-0.1657 0.3591,-0.4194 0.3591,-0.7026 v -0.2922 c 0,-0.1992 -0.0691,-0.384 -0.1864,-0.5337 0.4205,-0.8603 1.273,-1.5869 2.0037,-1.8773 z m 1.0208,10.9046 c 0.7545,-5.6817 5.8237,-9.3273 10.6201,-11.5136 -0.6802,-0.1937 -1.3186,-0.4848 -1.8837,-0.8721 -3.7584,1.4864 -7.1398,3.8771 -9.1243,7.2104 -0.1518,0.6458 -0.4729,1.389 -0.9783,2.0181 -0.3075,0.8044 -0.5398,1.6539 -0.6859,2.5487 0.6072,0.2604 1.2778,0.4809 2.0521,0.6085 z m -2.5478,-2.1566 c -0.1101,0.3882 -0.2022,0.783 -0.275,1.184 -0.0955,-0.0487 -0.1897,-0.098 -0.2827,-0.1473 v -0.7979 c 0.1968,-0.0639 0.3827,-0.1448 0.5577,-0.2388 z m 19.0249,-2.7413 c 0.0724,2.207 1.9041,4.0532 4.3478,4.5699 -0.7956,0.2662 -1.7049,0.4457 -2.7984,0.4457 -1.1867,0 -1.7254,-0.5057 -2.2158,-0.966 -0.8316,-0.7806 -1.5476,-1.2774 -2.7491,-1.2772 -1.9731,2e-4 -2.9171,1.7618 -3.3074,3.5717 -0.3902,-1.8099 -1.3339,-3.5715 -3.307,-3.5717 -1.2015,-2e-4 -1.9176,0.4966 -2.7492,1.2772 -0.4903,0.4603 -1.029,0.966 -2.2157,0.966 -0.2232,0 -0.4386,-0.008 -0.6471,-0.0217 0.7409,-5.5834 5.2602,-8.9795 10.8837,-11.3506 1.4823,0.3255 3.73,0.8193 4.2636,1.5305 h -0.5552 c 0.0529,0.9422 0.6566,1.7973 1.6107,2.4385 -0.4795,0.2998 -0.7439,0.8482 -0.7452,1.5102 -5e-4,0.3254 0.063,0.623 0.1843,0.8775 z m 9.4807,-4.061 c -0.677,1.063 -2.5158,1.829 -4.6687,1.829 -2.153,0 -3.9918,-0.766 -4.6687,-1.829 z m -5.7749,2.2518 c 0.5645,0 1.0249,0.4604 1.0249,1.025 0,0.5645 -0.4604,1.025 -1.0249,1.025 -0.5646,0 -1.025,-0.4605 -1.025,-1.025 0,-0.5646 0.4604,-1.025 1.025,-1.025 z m -2.2125,1e-4 c 0.5645,0 1.025,0.4604 1.025,1.025 0,0.5645 -0.4605,1.0249 -1.025,1.0249 -0.5646,0 -1.025,-0.4604 -1.025,-1.0249 0,-0.5646 0.4604,-1.025 1.025,-1.025 z m 6.6375,0 c 0.5644,0 1.0249,0.4604 1.0249,1.025 0,0.5645 -0.4605,1.0249 -1.0249,1.0249 -0.5646,0 -1.0251,-0.4604 -1.0251,-1.0249 0,-0.5646 0.4605,-1.025 1.0251,-1.025 z m -2.2125,-1e-4 c 0.5645,0 1.0249,0.4604 1.0249,1.025 0,0.5645 -0.4604,1.025 -1.0249,1.025 -0.5646,0 -1.025,-0.4605 -1.025,-1.025 0,-0.5646 0.4604,-1.025 1.025,-1.025 z m -15.1377,8.7447 c 0,0.5244 -0.4276,0.9523 -0.9521,0.9524 -0.5247,-1e-4 -0.9525,-0.4277 -0.9524,-0.9524 2e-4,-0.5246 0.4277,-0.9521 0.952,-0.9521 0.5249,0 0.9526,0.4275 0.9525,0.9521 z m 0,6.1669 c 0,0.5246 -0.4278,0.9524 -0.9523,0.9524 -0.5245,0 -0.9523,-0.4278 -0.9523,-0.9524 0,-0.5245 0.4278,-0.9523 0.9523,-0.9523 0.5245,0 0.9523,0.4278 0.9523,0.9523 z m 1e-4,-8.2226 c -1e-4,0.5246 -0.4279,0.9525 -0.9526,0.9526 -0.5243,-3e-4 -0.9521,-0.428 -0.9521,-0.9523 0,-0.5248 0.4276,-0.9526 0.9521,-0.9525 0.5247,-10e-5 0.9522,0.4278 0.9526,0.9522 z m 0,6.167 c -1e-4,0.5245 -0.4279,0.9523 -0.9526,0.9523 -0.5243,0 -0.9521,-0.4276 -0.9521,-0.9521 0,-0.5247 0.4278,-0.9525 0.9523,-0.9526 0.5242,10e-5 0.9523,0.4279 0.9524,0.9524 z m 0,-2.0556 c -1e-4,0.5246 -0.4279,0.9523 -0.9526,0.9522 -0.5243,1e-4 -0.9521,-0.4276 -0.9521,-0.9522 1e-4,-0.5246 0.4278,-0.9525 0.9523,-0.9525 0.5247,2e-4 0.9521,0.4276 0.9524,0.9525 z m 0.6861,-4.2645 c 0.6472,0.8479 1.0217,2.2594 1.0217,3.8524 0,1.5062 -0.3959,3.1706 -1.0304,4.2963 -0.0418,-0.3001 -0.1651,-0.5746 -0.347,-0.8007 0.0469,-0.0588 0.0921,-0.125 0.135,-0.1982 0.1446,-0.2461 0.2279,-0.5299 0.2282,-0.8292 v -5e-4 c -1e-4,-0.3878 -0.1364,-0.7457 -0.3637,-1.028 0.2273,-0.2828 0.3634,-0.6401 0.3637,-1.0271 v -5e-4 c -3e-4,-0.3102 -0.0886,-0.6032 -0.2416,-0.8542 -0.0371,-0.0609 -0.0779,-0.1194 -0.1218,-0.1743 0.2271,-0.2826 0.363,-0.6399 0.3632,-1.0267 v -5e-4 -0.001 c -3e-4,-0.3886 -0.1359,-0.7463 -0.3619,-1.0278 0.0466,-0.0586 0.0913,-0.1243 0.1339,-0.1968 0.1446,-0.2462 0.2279,-0.5301 0.2282,-0.8294 v -5e-4 c -1e-4,-0.0516 -0.003,-0.1026 -0.007,-0.1531 z m -13.7445,-10.4894 h 1.7943 v 1.1267 h -1.7943 z m 1.7943,8.9086 v 4.165 c -0.9243,-0.5981 -1.7943,-2.4794 -1.7943,-3.9149 v -0.3191 c 0.5125,0.0686 0.9857,0.087 1.2539,0.087 0.1773,0 0.3626,-0.006 0.5404,-0.018 z m -3.6523,-1.4069 v -0.1907 c 0,-0.324 0.265,-0.5891 0.5891,-0.5891 h 3.1207 c 0.3241,0 0.5892,0.2653 0.5892,0.5891 v 0.1907 c 0,0.324 -0.2653,0.5892 -0.5892,0.5892 h -3.1207 c -0.324,0 -0.5891,-0.2651 -0.5891,-0.5892 z m 0,-5.0935 v -0.1907 c 0,-0.324 0.265,-0.5891 0.5891,-0.5891 h 3.1207 c 0.3241,0 0.5892,0.2653 0.5892,0.5891 v 0.1907 c 0,0.324 -0.2653,0.5892 -0.5892,0.5892 h -3.1207 c -0.324,0 -0.5891,-0.265 -0.5891,-0.5892 z m 0,1.6979 v -0.1907 c 0,-0.324 0.265,-0.5891 0.5891,-0.5891 h 3.1207 c 0.3241,0 0.5892,0.2652 0.5892,0.5891 v 0.1907 c 0,0.3239 -0.2653,0.5891 -0.5892,0.5891 h -3.1207 c -0.324,0 -0.5891,-0.265 -0.5891,-0.5891 z m 0,1.6978 v -0.1907 c 0,-0.3241 0.265,-0.5891 0.5891,-0.5891 h 3.1207 c 0.3241,0 0.5892,0.2652 0.5892,0.5891 v 0.1907 c 0,0.3239 -0.2653,0.5892 -0.5892,0.5892 h -3.1207 c -0.324,0 -0.5891,-0.2651 -0.5891,-0.5892 z m -0.2803,3.1319 c 0.4418,0 0.8505,0.0579 1.2405,0.1576 0.0738,3.1507 1.6056,4.2792 3.5929,5.7645 v -4.0609 c 1.2007,0.5935 2.6133,1.0997 4.5878,1.0997 1.8036,0 2.4788,-0.8195 3.191,-1.4678 -0.009,0.0698 -0.0138,0.1412 -0.0138,0.2134 v 5e-4 c 0,0.3812 0.1317,0.7337 0.3519,1.0142 l 0.001,-0.001 c 0.004,0.005 0.007,0.009 0.011,0.0138 -0.2272,0.282 -0.3639,0.6401 -0.3641,1.0284 v 0.001 c 4e-4,0.3885 0.1362,0.7459 0.3623,1.0275 -0.0467,0.0587 -0.0919,0.1248 -0.1343,0.1971 -0.1445,0.2464 -0.2278,0.5302 -0.2281,0.8293 v 6e-4 0.001 c 5e-4,0.3861 0.1365,0.7425 0.3628,1.0248 -0.2265,0.2818 -0.3625,0.6401 -0.3628,1.0292 v 6e-4 0.001 c 5e-4,0.387 0.1365,0.7434 0.3628,1.0247 -0.2265,0.2819 -0.3625,0.6401 -0.3628,1.0292 v 5e-4 0.001 c 2e-4,0.127 0.0146,0.2506 0.0424,0.3695 -0.8553,-0.6837 -1.7747,-1.5967 -3.2196,-1.5967 -3.9245,0 -6.7096,2.1086 -9.4212,2.1086 -2.4092,0 -4.3741,-2.4285 -4.3741,-5.406 0,-2.9776 1.9649,-5.406 4.3741,-5.406 z m 19.5038,1.5536 c -0.005,0.0505 -0.007,0.1015 -0.008,0.1531 v 5e-4 c 3e-4,0.2993 0.0836,0.5832 0.2282,0.8294 0.0426,0.0725 0.0873,0.1382 0.134,0.1968 -0.2261,0.2815 -0.3617,0.6392 -0.362,1.0278 v 10e-4 5e-4 c 3e-4,0.3868 0.1362,0.7441 0.3633,1.0267 -0.044,0.0549 -0.0847,0.1134 -0.1219,0.1743 -0.1529,0.251 -0.2413,0.544 -0.2416,0.8542 v 5e-4 c 4e-4,0.387 0.1365,0.7443 0.3638,1.0271 -0.2273,0.2823 -0.3636,0.6402 -0.3638,1.028 v 5e-4 c 3e-4,0.2993 0.0836,0.5831 0.2282,0.8292 0.043,0.0732 0.0881,0.1394 0.135,0.1982 -0.1819,0.2261 -0.3051,0.5006 -0.347,0.8007 -0.6345,-1.1257 -1.0304,-2.7901 -1.0304,-4.2963 0,-1.593 0.3745,-3.0045 1.0218,-3.8524 z m 0.686,4.2645 c 4e-4,-0.5249 0.4278,-0.9523 0.9525,-0.9525 0.5245,0 0.9521,0.4279 0.9523,0.9525 0,0.5246 -0.4278,0.9523 -0.9522,0.9522 -0.5246,1e-4 -0.9524,-0.4276 -0.9526,-0.9522 z m 0,2.0556 c 2e-4,-0.5245 0.4282,-0.9523 0.9524,-0.9524 0.5246,10e-5 0.9524,0.4279 0.9524,0.9526 0,0.5245 -0.4278,0.9521 -0.9522,0.9521 -0.5246,0 -0.9524,-0.4278 -0.9526,-0.9523 z m 0,-6.167 c 5e-4,-0.5244 0.428,-0.9523 0.9526,-0.9522 0.5246,-10e-5 0.9522,0.4277 0.9522,0.9525 0,0.5243 -0.4278,0.952 -0.9522,0.9523 -0.5246,-1e-4 -0.9524,-0.428 -0.9526,-0.9526 z m 2e-4,8.2226 c 0,-0.5245 0.4277,-0.9523 0.9523,-0.9523 0.5245,0 0.9523,0.4278 0.9523,0.9523 0,0.5246 -0.4278,0.9524 -0.9523,0.9524 -0.5246,0 -0.9523,-0.4278 -0.9523,-0.9524 z m 0,-6.1669 c -2e-4,-0.5246 0.4276,-0.9521 0.9524,-0.9521 0.5244,0 0.9517,0.4275 0.9521,0.9521 1e-4,0.5247 -0.4277,0.9523 -0.9524,0.9524 -0.5245,-1e-4 -0.9521,-0.428 -0.9521,-0.9524 z m 15.1965,-3.7624 c 2.4092,0 4.3741,2.4284 4.3741,5.406 0,2.9775 -1.9649,5.406 -4.3741,5.406 -2.7116,0 -5.4967,-2.1086 -9.4211,-2.1086 -1.445,0 -2.3644,0.913 -3.2196,1.5967 0.0278,-0.1189 0.0422,-0.2425 0.0423,-0.3695 v -0.001 -5e-4 c -2e-4,-0.3891 -0.1363,-0.7473 -0.3627,-1.0292 0.2262,-0.2813 0.3623,-0.6377 0.3627,-1.0247 v -10e-4 -6e-4 c -2e-4,-0.3891 -0.1363,-0.7474 -0.3627,-1.0292 0.2263,-0.2823 0.3623,-0.6387 0.3627,-1.0248 v -10e-4 -6e-4 c -2e-4,-0.2991 -0.0835,-0.5829 -0.228,-0.8293 -0.0424,-0.0723 -0.0876,-0.1384 -0.1343,-0.1971 0.2261,-0.2816 0.3619,-0.639 0.3623,-1.0275 v -0.001 c -3e-4,-0.3883 -0.1369,-0.7464 -0.3642,-1.0284 0.004,-0.005 0.007,-0.009 0.011,-0.0138 l 0.001,0.001 c 0.2202,-0.2805 0.3518,-0.633 0.3518,-1.0142 v -5e-4 c 0,-0.0722 -0.005,-0.1436 -0.0138,-0.2134 0.7123,0.6483 1.3875,1.4678 3.1911,1.4678 4.7766,0 6.2649,-2.9609 9.4211,-2.9609 z m -39.6529,11.574 c 1.0247,1.0608 3.3863,2.0052 4.7719,1.9639 l 13.4071,-0.3995 c 1.4386,-0.0428 3.7806,0.6469 3.7806,2.0859 0,-1.439 2.3421,-2.1287 3.7807,-2.0859 l 13.4071,0.3995 c 1.3856,0.0413 3.7473,-0.9031 4.7719,-1.9639 0.0915,1.6249 -0.3107,3.7918 -1.3471,5.2995 -0.8588,1.2493 -2.1538,1.9848 -3.963,2.0171 l -12.2569,0.2198 c -1.7137,0.0307 -3.3745,0.8394 -4.3927,2.4875 -1.0181,-1.6481 -2.6788,-2.4568 -4.3925,-2.4875 l -12.2569,-0.2198 c -1.8093,-0.0324 -3.1043,-0.7678 -3.9631,-2.0171 -1.0363,-1.5077 -1.4386,-3.6746 -1.3471,-5.2995 z m 21.9596,5.375 c -0.5079,-1.3846 -2.2823,-2.3641 -3.7839,-2.3082 l -13.0089,0.4856 c -0.9156,0.0341 -2.5723,-0.5515 -3.8743,-1.0976 0.2352,2.5484 2.843,3.0442 4.5858,3.1109 l 12.1463,0.4646 c 1.4809,0.0567 2.9215,0.704 3.935,1.9753 1.0137,-1.2713 2.4543,-1.9186 3.9352,-1.9753 l 12.1462,-0.4646 c 1.7429,-0.0667 4.3507,-0.5625 4.5858,-3.1109 -1.3019,0.5461 -2.9587,1.1318 -3.8743,1.0976 l -13.0088,-0.4856 c -1.5016,-0.056 -3.276,0.9236 -3.7841,2.3082 z m 0,-21.2556 c 0.4928,0 0.8946,0.4019 0.8946,0.8946 0,0.4927 -0.4018,0.8946 -0.8946,0.8946 -0.4926,0 -0.8945,-0.4019 -0.8945,-0.8946 0,-0.4927 0.4019,-0.8946 0.8945,-0.8946 z m -8.2299,-10.3886 c 0.4927,0 0.8946,0.4018 0.8946,0.8945 0,0.4928 -0.4019,0.8947 -0.8946,0.8947 -0.4926,0 -0.8945,-0.4019 -0.8945,-0.8947 0,-0.4927 0.4019,-0.8945 0.8945,-0.8945 z m 5.1617,-13.8202 c 0.8231,0 1.4965,0.6734 1.4965,1.4965 h -2.5162 c -0.588,0 -1.2393,-0.6162 -1.2393,-1.4965 0.8418,0 1.4173,0 2.259,0 z m 6.1359,0 c 0.8417,0 1.4172,0 2.259,0 0,0.8803 -0.6513,1.4965 -1.2393,1.4965 h -2.5162 c 0,-0.8231 0.6734,-1.4965 1.4965,-1.4965 z" />
  <path
     inkscape:export-ydpi="31.709999"
     inkscape:export-xdpi="31.709999"
     inkscape:export-filename="/home/jaka/Documents/WebDev/jakanggara/geokom/public/favicon.ico.png"
     id="path58"
     style="fill:#d4aa00;fill-rule:evenodd"
     d="m 217.5941,132.0632 c -1.0757,-0.7319 -2.3502,-0.958 -3.5378,-0.7343 v 0.001 c -1.1876,0.2261 -2.293,0.908 -3.0272,1.9861 -0.7319,1.0757 -0.958,2.3502 -0.7342,3.5377 h 10e-4 c 0.2261,1.1876 0.908,2.2931 1.9861,3.0273 1.0757,0.7318 2.3502,0.9579 3.5377,0.7342 v -10e-4 c 1.19,-0.2273 2.2967,-0.9055 3.0261,-1.9801 v -0.006 c 0.733,-1.0769 0.9591,-2.355 0.7342,-3.5437 -0.2249,-1.184 -0.9067,-2.2871 -1.986,-3.0213 z m -4.122,-3.8198 c 1.9741,-0.3749 4.097,0.004 5.8926,1.2256 1.7933,1.2197 2.9262,3.057 3.3022,5.0371 0.3736,1.9742 -0.005,4.0971 -1.2269,5.8927 l -0.002,-0.002 c -1.2221,1.7956 -3.0559,2.9284 -5.0276,3.3045 h -0.006 c -1.9741,0.3748 -4.097,-0.004 -5.8927,-1.2257 -1.7932,-1.2209 -2.9249,-3.0558 -3.3021,-5.0311 v -0.006 c -0.3749,-1.9741 0.004,-4.097 1.2256,-5.8927 1.2209,-1.7933 3.0571,-2.9249 5.0312,-3.3021 z" />
</svg>
